<?xml version="1.0" standalone="no"?>
<!DOCTYPE svg PUBLIC "-//W3C//DTD SVG 20010904//EN"
 "http://www.w3.org/TR/2001/REC-SVG-20010904/DTD/svg10.dtd">
<svg version="1.0" xmlns="http://www.w3.org/2000/svg"
 width="819.000000pt" height="819.000000pt" viewBox="0 0 819.000000 819.000000"
 preserveAspectRatio="xMidYMid meet">
<metadata>
Created by potrace 1.14, written by Peter Selinger 2001-2017
</metadata>
<g transform="translate(0.000000,819.000000) scale(0.100000,-0.100000)"
fill="#000000" stroke="none">
<path d="M3815 7839 c-153 -9 -226 -19 -434 -60 -526 -104 -1070 -326 -1507
-615 -362 -239 -703 -569 -924 -894 -8 -12 -26 -36 -38 -53 -173 -234 -354
-575 -452 -852 -23 -66 -46 -129 -51 -140 -31 -75 -100 -351 -128 -515 -58
-344 -73 -682 -46 -1020 20 -244 38 -369 87 -580 125 -548 383 -1085 725
-1515 134 -168 383 -418 542 -545 24 -19 58 -47 75 -61 26 -21 119 -88 238
-170 15 -11 32 -19 38 -19 6 0 8 -5 4 -12 -4 -6 -3 -8 3 -5 6 4 22 -2 36 -13
36 -29 130 -82 292 -165 118 -60 190 -93 410 -186 11 -4 74 -26 140 -47 434
-140 712 -188 1155 -199 636 -15 1197 100 1815 374 193 86 389 199 589 341 67
47 123 88 126 91 3 4 30 26 60 51 196 158 443 410 557 567 26 36 60 80 74 97
14 17 51 67 81 111 359 523 616 1242 668 1874 15 180 12 648 -4 781 -82 662
-312 1252 -689 1775 -189 261 -389 481 -622 683 -55 48 -109 97 -121 109 -11
13 -23 21 -26 18 -2 -3 -20 10 -40 28 -19 17 -39 33 -44 34 -5 2 -22 13 -39
25 -177 132 -503 312 -745 413 -126 52 -407 147 -535 180 -401 103 -824 141
-1270 114z m-825 -2233 c36 -9 76 -19 90 -22 14 -3 45 -15 70 -26 24 -11 54
-24 65 -28 28 -11 133 -86 196 -140 65 -56 145 -163 193 -258 126 -250 151
-533 70 -787 -46 -142 -123 -293 -145 -280 -5 4 -6 0 -4 -8 9 -23 -135 -163
-214 -209 -22 -12 -41 -28 -41 -33 0 -6 58 -130 128 -275 71 -146 148 -305
172 -355 23 -49 78 -162 121 -250 92 -189 96 -203 75 -243 -32 -62 -34 -62
-330 -62 l-269 0 -32 24 c-28 22 -100 135 -153 241 -11 22 -57 108 -102 190
-70 128 -199 372 -263 497 -29 58 -52 63 -307 63 l-225 0 -5 -487 -5 -486 -24
-26 -24 -26 -238 0 c-131 0 -248 4 -261 9 -13 5 -34 19 -48 31 l-25 22 -3
1429 c-3 1605 -9 1463 73 1500 38 18 76 19 720 15 599 -2 688 -5 745 -20z
m1391 18 c66 -9 104 -46 192 -188 35 -55 92 -146 127 -201 58 -92 110 -175
135 -217 6 -9 35 -54 66 -100 31 -46 81 -121 111 -168 30 -47 81 -127 114
-178 32 -50 75 -118 94 -150 19 -32 45 -71 56 -87 l22 -29 38 59 c21 33 49 80
63 105 13 25 36 63 51 85 14 22 50 81 80 130 29 50 67 113 85 140 18 28 50 79
72 115 22 36 89 144 149 240 59 96 113 178 118 182 6 4 14 4 20 1 5 -3 6 -1 2
6 -4 6 -11 9 -16 6 -5 -3 9 23 30 57 22 35 46 77 54 93 7 17 30 46 50 65 l37
35 207 3 c226 4 268 -3 301 -45 21 -26 21 -28 21 -1454 0 -1047 -3 -1435 -11
-1453 -23 -50 -57 -56 -299 -56 -189 0 -226 2 -250 17 -57 33 -55 4 -51 793 3
514 1 729 -7 734 -6 4 -47 -49 -99 -130 -48 -75 -154 -236 -234 -358 -80 -121
-159 -243 -175 -271 -16 -27 -49 -71 -75 -97 l-45 -48 -108 0 c-83 0 -115 4
-136 17 -31 18 -127 160 -385 568 -48 77 -108 170 -132 207 -23 37 -43 71 -43
75 0 5 -9 14 -20 21 -22 14 -23 5 -21 -990 1 -351 -1 -434 -13 -462 -26 -63
-36 -65 -299 -68 l-237 -3 -27 28 -28 27 -3 1418 c-1 779 0 1431 3 1447 8 44
18 55 61 70 43 14 269 20 355 9z m1349 -3708 c0 -2 -8 -10 -17 -17 -16 -13
-17 -12 -4 4 13 16 21 21 21 13z m-100 -90 c0 -2 -8 -10 -17 -17 -16 -13 -17
-12 -4 4 13 16 21 21 21 13z m-40 -36 c0 -5 -5 -10 -11 -10 -5 0 -7 5 -4 10 3
6 8 10 11 10 2 0 4 -4 4 -10z m-3749 -77 c13 -16 12 -17 -3 -4 -10 7 -18 15
-18 17 0 8 8 3 21 -13z m-266 -143 c-3 -5 -12 -10 -18 -10 -7 0 -6 4 3 10 19
12 23 12 15 0z m-35 -20 c0 -5 -2 -10 -4 -10 -3 0 -8 5 -11 10 -3 6 -1 10 4
10 6 0 11 -4 11 -10z m4150 -44 c0 -3 -4 -8 -10 -11 -5 -3 -10 -1 -10 4 0 6 5
11 10 11 6 0 10 -2 10 -4z m-130 -96 c0 -5 -5 -10 -11 -10 -5 0 -7 5 -4 10 3
6 8 10 11 10 2 0 4 -4 4 -10z m-3265 -60 c-3 -5 -12 -10 -18 -10 -7 0 -6 4 3
10 19 12 23 12 15 0z m-465 -54 c0 -3 -4 -8 -10 -11 -5 -3 -10 -1 -10 4 0 6 5
11 10 11 6 0 10 -2 10 -4z m245 -156 c3 -6 -1 -7 -9 -4 -18 7 -21 14 -7 14 6
0 13 -4 16 -10z m-4 -37 c13 -16 12 -17 -3 -4 -17 13 -22 21 -14 21 2 0 10 -8
17 -17z m169 -83 c0 -5 -2 -10 -4 -10 -3 0 -8 5 -11 10 -3 6 -1 10 4 10 6 0
11 -4 11 -10z m823 -7 c-7 -2 -19 -2 -25 0 -7 3 -2 5 12 5 14 0 19 -2 13 -5z
m-788 -43 c3 -5 2 -10 -4 -10 -5 0 -13 5 -16 10 -3 6 -2 10 4 10 5 0 13 -4 16
-10z m2180 -20 c-3 -5 -14 -10 -23 -10 -15 0 -15 2 -2 10 20 13 33 13 25 0z
m-88 -16 c-3 -3 -12 -4 -19 -1 -8 3 -5 6 6 6 11 1 17 -2 13 -5z m-870 -10 c-3
-3 -12 -4 -19 -1 -8 3 -5 6 6 6 11 1 17 -2 13 -5z m956 -1 c-7 -2 -19 -2 -25
0 -7 3 -2 5 12 5 14 0 19 -2 13 -5z m-1753 -144 c13 -7 13 -8 0 -8 -8 0 -26 6
-40 15 l-25 15 25 -7 c14 -3 32 -10 40 -15z m157 -55 c-3 -3 -12 -4 -19 -1 -8
3 -5 6 6 6 11 1 17 -2 13 -5z m1601 -101 c-10 -2 -28 -2 -40 0 -13 2 -5 4 17
4 22 1 32 -1 23 -4z m-555 -60 c-13 -2 -33 -2 -45 0 -13 2 -3 4 22 4 25 0 35
-2 23 -4z"/>
<path d="M2090 4950 c-1 -3 -1 -156 0 -340 l0 -335 313 0 312 0 66 31 c36 17
84 49 107 71 23 22 44 38 47 36 3 -1 3 0 0 3 -2 4 8 30 23 57 24 44 27 61 27
141 0 85 -2 95 -35 155 -37 68 -98 121 -180 157 -40 17 -78 19 -363 24 -174 3
-317 3 -317 0z"/>
</g>
</svg>
